<svg fill="none" viewBox="0 0 956 125" xmlns="http://www.w3.org/2000/svg"><path d="m849.696 87.3987c0-6.9011 5.596-12.4855 12.486-12.4855h40.21c6.901 0 12.486-5.5955 12.486-12.4856 0-6.901-5.596-12.4855-12.486-12.4855h-84.338c-6.901 0-12.485-5.5954-12.485-12.4855 0-6.9011 5.595-12.4855 12.485-12.4855h35.383c6.901 0 12.486-5.5955 12.486-12.4856 0-6.90102-5.596-12.4855-12.486-12.4855h-840.9515c-6.89005 0-12.4855 5.59545-12.4855 12.4855 0 6.9011 5.59545 12.4856 12.4855 12.4856h78.3582c6.9011 0 12.4853 5.5954 12.4853 12.4855 0 6.901-5.5952 12.4855-12.4853 12.4855h-31.3016c-6.901 0-12.4855 5.5955-12.4855 12.4855 0 6.9011 5.5955 12.4856 12.4855 12.4856h77.5139c6.901 0 12.485 5.5954 12.485 12.4855 0 6.901-5.595 12.4855-12.485 12.4855h-32.213c-6.9007 0-12.4852 5.5958-12.4852 12.4858 0 6.901 5.5954 12.485 12.4852 12.485h838.341c6.901 0 12.485-5.595 12.485-12.485 0-6.901-5.595-12.4858-12.485-12.4858h-81.002c-6.901 0-12.486-5.5954-12.486-12.4855z" fill="#0c3439"/></svg>